<!DOCTYPE svg PUBLIC "-//W3C//DTD SVG 1.1//EN" "http://www.w3.org/Graphics/SVG/1.1/DTD/svg11.dtd">
<!-- Uploaded to: SVG Repo, www.svgrepo.com, Transformed by: SVG Repo Mixer Tools -->
<svg fill="#00b3b3" width="100px" height="100px" viewBox="-3.38 -3.38 32.76 32.76" xmlns="http://www.w3.org/2000/svg" stroke="#00b3b3" stroke-width="0.78">
<g id="SVGRepo_bgCarrier" stroke-width="0"/>
<g id="SVGRepo_tracerCarrier" stroke-linecap="round" stroke-linejoin="round"/>
<g id="SVGRepo_iconCarrier">
<path d="m22.5 24v-7.845c-1.306-.344-2.253-1.514-2.253-2.905s.947-2.562 2.232-2.901l.021-.005v-10.344h1.5v10.344c1.306.344 2.253 1.514 2.253 2.906s-.947 2.562-2.232 2.901l-.021.005v7.845zm-9.75 0v-12.845c-1.306-.344-2.253-1.514-2.253-2.905s.947-2.562 2.232-2.901l.021-.005v-5.344h1.5v5.344c1.306.344 2.253 1.514 2.253 2.905s-.947 2.562-2.232 2.901l-.021.005v12.845zm-10.5 0v-3.845c-1.306-.344-2.253-1.514-2.253-2.905s.947-2.562 2.232-2.901l.021-.005v-14.344h1.5v14.344c1.306.344 2.253 1.514 2.253 2.905s-.947 2.562-2.232 2.901l-.021.005v3.845z"/>
</g>
</svg>