<svg width="336" height="265" viewBox="0 0 336 265" fill="none" xmlns="http://www.w3.org/2000/svg">
<path d="M328.76 212.922C316.47 221.516 293.161 257.053 279.602 247.3C266.044 237.546 285.795 189.258 274.526 173.908C263.256 158.558 248.776 193.96 234.525 185.899C220.274 177.837 231.295 150.895 217.523 141.662C203.752 132.429 194.595 154.816 179.439 148.967C164.283 143.118 173.174 121.382 156.9 118.267C140.627 115.151 127.051 148.341 114.345 136.505C101.638 124.669 117.29 86.4031 106.073 70.9227C94.8573 55.4423 81.6545 87.7211 69.4801 74.5836C57.3058 61.446 71.3072 27.2147 57.376 18.3723C43.4448 9.52991 24.6605 34.0035 13.7553 39.2139" stroke="url(#paint0_linear_88_144)" stroke-width="6" stroke-linecap="round"/>
<path d="M327.6 199.568C316.052 208.754 294.999 244.848 281.407 236.312C267.814 227.776 284.849 179.548 273.231 165.422C261.613 151.296 249.124 186.654 234.935 179.808C220.746 172.961 230.251 146.053 216.475 138.036C202.699 130.02 194.801 152.378 179.831 147.742C164.862 143.105 172.53 121.396 156.596 119.49C140.662 117.583 128.953 150.731 116.095 140.115C103.238 129.499 116.737 91.2807 105.165 77.0246C93.5932 62.7685 82.206 95.0068 69.8076 83.0906C57.4091 71.1744 69.4851 36.9862 55.5714 29.3598C41.6577 21.7333 24.5075 46.7785 14.1528 52.5848" stroke="url(#paint1_linear_88_144)" stroke-width="6" stroke-linecap="round"/>
<path d="M325.755 186.64C314.961 196.342 296.138 232.793 282.578 225.446C269.018 218.1 283.407 170.157 271.515 157.253C259.623 144.35 249.073 179.5 235.009 173.833C220.944 168.166 228.973 141.416 215.258 134.587C201.542 127.757 194.871 149.984 180.148 146.514C165.424 143.044 171.901 121.463 156.363 120.707C140.825 119.951 130.935 152.904 117.995 143.489C105.056 134.075 116.459 96.0826 104.605 83.05C92.7516 70.0174 83.1327 102.065 70.5811 91.3588C58.0294 80.6523 68.2301 46.6659 54.3985 40.2238C40.5669 33.7817 25.0407 59.2488 15.2548 65.5905" stroke="url(#paint2_linear_88_144)" stroke-width="6" stroke-linecap="round"/>
<path d="M323.261 174.194C313.229 184.335 296.599 220.948 283.135 214.758C269.67 208.569 281.496 161.124 269.402 149.436C257.308 137.747 248.638 172.531 234.759 168.004C220.88 163.477 227.478 137.005 213.886 131.327C200.294 125.649 194.811 147.645 180.39 145.292C165.97 142.939 171.293 121.582 156.203 121.915C141.112 122.247 132.984 154.857 120.029 146.621C107.075 138.385 116.446 100.788 104.384 88.9716C92.3223 77.1552 84.417 108.87 71.7812 99.3554C59.1454 89.8408 67.5288 56.2078 53.8411 50.9134C40.1533 45.6189 26.2329 71.3615 17.0302 78.1776" stroke="url(#paint3_linear_88_144)" stroke-width="6" stroke-linecap="round"/>
<path d="M320.154 162.278C310.889 172.782 296.405 209.367 283.096 204.297C269.788 199.227 279.143 152.484 266.919 141.996C254.694 131.508 247.835 165.778 234.199 162.345C220.562 158.913 225.782 132.833 212.373 128.266C198.963 123.7 194.626 145.37 180.56 144.08C166.495 142.789 170.706 121.749 156.112 123.104C141.517 124.459 135.086 156.587 122.181 149.501C109.276 142.414 116.69 105.373 104.49 94.7593C92.2913 84.1454 86.0375 115.391 73.3844 107.045C60.7313 98.6989 67.3633 65.5634 53.8781 61.3751C40.3928 57.1867 28.052 83.0623 19.4434 90.2914" stroke="url(#paint4_linear_88_144)" stroke-width="6" stroke-linecap="round"/>
<path d="M316.476 150.935C307.978 161.729 295.582 198.105 282.487 194.112C269.391 190.118 276.379 144.269 264.093 134.962C251.807 125.654 246.684 159.269 233.344 156.882C220.003 154.495 223.902 128.913 210.731 125.414C197.56 121.915 194.32 143.171 180.66 142.885C166.999 142.599 170.144 121.961 156.088 124.27C142.032 126.579 137.229 158.093 124.435 152.122C111.641 146.151 117.178 109.818 104.911 100.387C92.6442 90.9561 87.9731 121.604 75.3672 114.398C62.7613 107.191 67.7148 74.6892 54.4874 71.5608C41.2599 68.4325 30.4648 94.3035 22.4572 101.884" stroke="url(#paint5_linear_88_144)" stroke-width="6" stroke-linecap="round"/>
<path d="M312.269 140.21C304.534 151.219 294.159 187.212 281.331 184.249C268.502 181.285 273.234 136.509 260.954 128.356C248.674 120.203 245.204 153.031 232.21 151.636C219.215 150.242 221.855 125.259 208.976 122.778C196.096 120.298 193.902 141.056 180.691 141.714C167.479 142.371 169.609 122.216 156.13 125.408C142.651 128.599 139.398 159.376 126.774 154.481C114.149 149.587 117.899 114.104 105.632 105.83C93.3643 97.5561 90.201 127.487 77.704 121.386C65.2069 115.285 68.5615 83.5431 55.6435 81.4245C42.7255 79.3059 33.4349 105.04 26.032 112.912" stroke="url(#paint6_linear_88_144)" stroke-width="6" stroke-linecap="round"/>
<path d="M307.576 130.137C300.596 141.29 292.166 176.736 279.655 174.751C267.143 172.767 269.74 129.23 257.53 122.2C245.319 115.17 243.415 147.089 230.813 146.63C218.21 146.172 219.659 121.88 207.12 120.365C194.58 118.851 193.376 139.035 180.655 140.571C167.933 142.107 169.102 122.51 156.234 126.511C143.365 130.511 141.58 160.436 129.181 156.574C116.781 152.712 118.839 118.211 106.636 111.063C94.4323 103.916 92.6962 133.019 80.3667 127.983C68.0372 122.948 69.8784 92.0848 57.3178 90.922C44.7573 89.7593 36.923 115.23 30.1247 123.332" stroke="url(#paint7_linear_88_144)" stroke-width="6" stroke-linecap="round"/>
<path d="M302.445 120.75C296.207 131.978 289.639 166.721 277.491 165.661C265.343 164.601 265.934 122.456 253.854 116.512C241.775 110.567 241.342 141.466 229.173 141.884C217.005 142.301 217.334 118.786 205.18 118.181C193.026 117.575 192.752 137.114 180.556 139.463C168.361 141.811 168.627 122.84 156.398 127.574C144.169 132.308 143.763 161.276 131.64 158.399C119.518 155.522 119.986 122.123 107.908 116.066C95.8304 110.008 95.4357 138.18 83.3292 134.167C71.2228 130.154 71.6414 100.277 59.4825 100.013C47.3235 99.7485 40.8906 124.835 34.6933 133.109" stroke="url(#paint8_linear_88_144)" stroke-width="6" stroke-linecap="round"/>
<path d="M296.922 112.078C291.409 123.312 286.61 157.208 274.868 157.015C263.127 156.822 261.846 116.207 249.956 111.307C238.065 106.407 239.005 136.184 227.308 137.414C215.611 138.644 214.896 115.983 203.169 116.228C191.441 116.473 192.035 135.303 180.397 138.394C168.759 141.486 168.182 123.204 156.616 128.594C145.051 133.984 145.931 161.9 134.134 159.956C122.338 158.012 121.322 125.826 109.429 120.816C97.5353 115.807 98.3916 142.956 86.5602 139.917C74.7287 136.878 73.8207 108.086 62.1032 108.66C50.3857 109.233 45.2935 133.823 39.6903 142.211" stroke="url(#paint9_linear_88_144)" stroke-width="6" stroke-linecap="round"/>
<path d="M291.056 104.145C286.248 115.32 283.12 148.234 271.823 148.847C260.526 149.46 257.514 110.5 245.868 106.597C234.222 102.695 236.43 131.259 225.239 133.237C214.047 135.215 212.367 113.477 201.102 114.51C189.838 115.544 191.234 133.606 180.18 137.37C169.127 141.133 167.771 123.596 156.888 129.565C146.005 135.534 148.075 162.313 136.648 161.246C125.221 160.178 122.835 129.304 111.18 125.296C99.5263 121.289 101.539 147.333 90.0313 145.215C78.5232 143.098 76.3884 115.479 65.1482 116.827C53.908 118.176 50.0899 142.163 45.0705 150.608" stroke="url(#paint10_linear_88_144)" stroke-width="6" stroke-linecap="round"/>
<path d="M284.896 96.9701C280.769 108.025 279.207 139.835 268.389 141.19C257.57 142.546 252.974 105.349 241.623 102.393C230.273 99.4375 233.642 126.709 222.985 129.368C212.328 132.027 209.763 111.273 198.995 113.03C188.226 114.787 190.357 132.032 179.91 136.395C169.464 140.759 167.395 124.015 157.208 130.484C147.022 136.953 150.181 162.52 139.164 162.272C128.148 162.023 124.506 132.546 113.143 129.49C101.779 126.435 104.852 151.3 93.7112 150.049C82.5709 148.798 79.3129 122.428 68.5813 124.486C57.8498 126.544 55.2342 149.831 50.7852 158.279" stroke="url(#paint11_linear_88_144)" stroke-width="6" stroke-linecap="round"/>
<path d="M278.493 90.5675C275.021 101.443 274.913 132.037 264.603 134.07C254.294 136.103 248.263 100.762 237.255 98.699C226.246 96.6358 230.667 122.546 220.569 125.817C210.471 129.088 207.106 109.37 196.862 111.784C186.617 114.198 189.413 130.582 179.591 135.473C169.769 140.363 167.055 124.455 157.574 131.346C148.093 138.237 152.238 162.528 141.669 163.037C131.099 163.545 126.32 135.54 115.296 133.381C104.271 131.223 108.302 154.847 97.5696 154.403C86.8374 153.959 82.5627 128.906 72.3669 131.606C62.1711 134.306 60.6815 156.803 56.7864 165.202" stroke="url(#paint12_linear_88_144)" stroke-width="6" stroke-linecap="round"/>
<path d="M271.896 84.9484C269.048 95.5891 270.279 124.868 260.503 127.511C250.728 130.154 243.417 96.7485 232.794 95.5196C222.171 94.2906 227.531 118.782 218.012 122.595C208.493 126.408 204.414 107.77 194.717 110.773C185.021 113.776 188.41 129.263 179.226 134.607C170.041 139.951 166.751 124.914 157.98 132.149C149.21 139.384 154.235 162.344 144.144 163.547C134.053 164.749 128.26 138.277 117.617 136.958C106.975 135.638 111.862 157.969 101.574 158.27C91.2861 158.572 86.1034 134.891 76.4659 138.164C66.8284 141.437 66.3844 163.063 63.0239 171.363" stroke="url(#paint13_linear_88_144)" stroke-width="6" stroke-linecap="round"/>
<path d="M265.156 80.1195C262.899 90.4735 265.349 118.352 256.129 121.536C246.909 124.72 238.472 93.3122 228.274 92.8562C218.076 92.4001 224.261 115.427 215.336 119.711C206.412 123.996 201.705 106.472 192.575 109.995C183.446 113.518 187.357 128.079 178.819 133.803C170.281 139.527 166.483 125.389 158.423 132.891C150.362 140.392 156.16 161.98 146.576 163.809C136.992 165.639 130.307 140.75 120.086 140.209C109.865 139.668 115.504 160.663 105.693 161.646C95.8813 162.63 89.901 140.365 80.8399 144.142C71.7787 147.918 72.2961 168.601 69.4482 176.754" stroke="url(#paint14_linear_88_144)" stroke-width="6" stroke-linecap="round"/>
<path d="M258.323 76.0803C256.622 86.1 260.168 112.503 251.52 116.159C242.871 119.815 233.467 90.4519 223.728 90.7048C213.989 90.9576 220.884 112.485 212.565 117.17C204.246 121.855 198.999 105.472 190.451 109.445C181.904 113.418 186.264 127.031 178.375 133.061C170.487 139.092 166.254 125.874 158.898 133.567C151.542 141.259 158.006 161.442 148.951 163.831C139.897 166.221 132.445 142.952 122.681 143.126C112.917 143.3 119.203 162.928 109.895 164.526C100.587 166.125 93.9208 145.309 85.4495 149.519C76.9782 153.729 78.3698 173.405 76.0099 181.367" stroke="url(#paint15_linear_88_144)" stroke-width="6" stroke-linecap="round"/>
<path d="M251.448 72.8278C250.265 82.4694 254.781 107.336 246.716 111.394C238.651 115.452 228.436 88.1648 219.187 89.0603C209.938 89.9557 217.427 109.962 209.719 114.976C202.012 119.99 196.313 104.765 188.358 109.117C180.403 113.47 185.138 126.121 177.899 132.385C170.66 138.65 166.062 126.367 159.401 134.176C152.74 141.985 159.761 160.741 151.255 163.622C142.749 166.503 134.655 144.879 125.378 145.701C116.101 146.523 122.929 164.764 114.148 166.91C105.367 169.055 98.1264 149.712 90.2539 154.285C82.3815 158.858 84.5574 177.472 82.6586 185.202" stroke="url(#paint16_linear_88_144)" stroke-width="6" stroke-linecap="round"/>
<path d="M244.578 70.3538C243.873 79.5779 249.231 102.86 241.757 107.25C234.283 111.641 223.415 86.4445 214.681 87.9143C205.947 89.3841 213.915 107.857 206.822 113.13C199.729 118.403 193.665 104.345 186.308 109.006C178.951 113.668 183.989 125.349 177.394 131.777C170.799 138.204 165.907 126.863 159.927 134.717C153.946 142.57 161.416 159.888 153.473 163.192C145.531 166.495 136.918 146.529 128.155 147.931C119.392 149.332 126.657 166.175 118.421 168.8C110.185 171.424 102.481 153.562 95.2119 158.428C87.9428 163.294 90.8115 180.803 89.3447 188.262" stroke="url(#paint17_linear_88_144)" stroke-width="6" stroke-linecap="round"/>
<path d="M237.763 68.6467C237.494 77.4185 243.566 99.0814 236.686 103.734C229.806 108.386 218.44 85.2819 210.243 87.2565C202.045 89.231 210.378 106.17 203.896 111.632C197.414 117.094 191.073 104.203 184.315 109.105C177.558 114.006 182.827 124.718 176.866 131.238C170.905 137.759 165.789 127.359 160.471 135.188C155.153 143.016 162.966 158.896 155.595 162.552C148.225 166.209 139.218 147.899 130.99 149.812C122.762 151.724 130.36 167.168 122.683 170.202C115.006 173.235 106.949 156.856 100.284 161.945C93.6179 167.033 97.0861 183.403 96.0203 190.555" stroke="url(#paint18_linear_88_144)" stroke-width="6" stroke-linecap="round"/>
<path d="M231.049 67.6911C231.172 75.9802 237.829 96.0018 231.541 100.848C225.254 105.693 213.544 84.6657 205.899 87.0744C198.254 89.483 206.84 104.9 200.963 110.482C195.086 116.065 188.552 104.332 182.391 109.405C176.229 114.477 181.658 124.226 176.318 130.772C170.977 137.318 165.706 127.853 161.028 135.59C156.351 143.326 164.399 157.779 157.607 161.718C150.815 165.657 141.535 148.993 133.859 151.345C126.182 153.697 134.01 167.753 126.902 171.126C119.794 174.498 111.493 159.591 105.426 164.834C99.3596 170.077 103.333 185.28 102.636 192.096" stroke="url(#paint19_linear_88_144)" stroke-width="6" stroke-linecap="round"/>
<path d="M224.484 67.4634C224.955 75.2442 232.068 93.6152 226.367 98.5865C220.667 103.558 208.762 84.5773 201.682 87.3487C194.602 90.1202 203.329 104.036 198.046 109.672C192.763 115.309 186.121 104.718 180.548 109.894C174.976 115.07 180.495 123.87 175.757 130.376C171.019 136.882 165.661 128.339 161.597 135.919C157.533 143.5 165.715 156.546 159.501 160.698C153.287 164.851 143.853 149.81 136.741 152.53C129.629 155.25 137.586 167.938 131.052 171.579C124.517 175.221 116.078 161.765 110.602 167.095C105.126 172.424 109.511 186.447 109.148 192.897" stroke="url(#paint20_linear_88_144)" stroke-width="6" stroke-linecap="round"/>
<path d="M218.11 67.9401C218.883 75.1916 226.324 91.9158 221.201 96.9464C216.077 101.977 204.125 84.9995 197.616 88.0623C191.107 91.1251 199.87 103.572 195.165 109.198C190.461 114.823 183.792 105.351 178.797 110.564C173.803 115.778 179.344 123.649 175.187 130.052C171.03 136.456 165.649 128.813 162.169 136.178C158.688 143.542 166.903 155.211 161.264 159.51C155.625 163.808 146.154 150.354 139.613 153.371C133.072 156.388 141.061 167.737 135.1 171.578C129.139 175.419 120.666 163.383 115.768 168.734C110.87 174.085 115.573 186.92 115.508 192.982" stroke="url(#paint21_linear_88_144)" stroke-width="6" stroke-linecap="round"/>
<path d="M211.97 69.0935C212.998 75.7998 220.642 90.8935 216.082 95.9189C211.521 100.944 199.663 85.9119 193.728 89.1949C187.793 92.478 196.487 103.499 192.342 109.051C188.197 114.603 181.58 106.216 177.147 111.403C172.715 116.591 178.212 123.56 174.611 129.801C171.009 136.042 165.671 129.275 162.741 136.367C159.81 143.459 167.961 153.791 162.889 158.168C157.817 162.545 148.419 150.633 142.452 153.875C136.485 157.118 144.412 167.166 139.021 171.138C133.629 175.11 125.223 164.454 120.886 169.763C116.549 175.072 121.476 186.721 121.673 192.374" stroke="url(#paint22_linear_88_144)" stroke-width="6" stroke-linecap="round"/>
<path d="M206.105 70.8908C207.342 77.0407 215.066 90.5324 211.051 95.4904C207.035 100.448 195.406 87.2898 190.043 90.7227C184.679 94.1555 193.205 103.803 189.597 109.222C185.989 114.641 179.5 107.299 175.61 112.399C171.72 117.499 177.111 123.599 174.036 129.621C170.96 135.643 165.726 129.72 163.309 136.487C160.892 143.254 168.885 152.298 164.367 156.688C159.85 161.079 150.635 150.651 145.24 154.049C139.845 157.446 147.619 166.242 142.788 170.278C137.957 174.314 129.714 164.986 125.917 170.192C122.121 175.398 127.182 185.875 127.603 191.103" stroke="url(#paint23_linear_88_144)" stroke-width="6" stroke-linecap="round"/>
<path d="M200.553 73.2957C201.951 78.8828 209.637 90.8131 206.144 95.6441C202.652 100.475 191.382 89.1064 186.583 92.6197C181.784 96.1331 190.047 104.468 186.949 109.697C183.852 114.927 177.563 108.584 174.192 113.537C170.821 118.491 176.046 123.761 173.465 129.512C170.884 135.262 165.811 130.145 163.868 136.539C161.924 142.932 169.671 150.746 165.692 155.087C161.713 159.428 152.782 150.419 147.953 153.901C143.124 157.384 150.658 164.984 146.375 169.018C142.093 173.052 134.104 164.993 130.824 170.039C127.544 175.084 132.648 184.41 133.256 189.2" stroke="url(#paint24_linear_88_144)" stroke-width="6" stroke-linecap="round"/>
<path d="M195.35 76.2708C196.862 81.2936 204.394 91.7145 201.399 96.3619C198.404 101.009 187.616 91.3344 183.37 94.8604C179.125 98.3865 187.035 105.48 184.418 110.466C181.801 115.453 175.782 110.054 172.903 114.806C170.025 119.558 175.027 124.043 172.904 129.473C170.782 134.903 165.926 130.548 164.414 136.525C162.902 142.502 170.317 149.152 166.857 153.382C163.397 157.613 154.848 149.946 150.574 153.446C146.299 156.946 153.511 163.413 149.76 167.382C146.009 171.352 138.361 164.493 135.57 169.323C132.779 174.153 137.839 182.357 138.595 186.702" stroke="url(#paint25_linear_88_144)" stroke-width="6" stroke-linecap="round"/>
<path d="M190.527 79.7717C192.108 84.2334 199.375 93.2082 196.849 97.6186C194.323 102.029 184.131 93.9403 180.424 97.4132C176.717 100.886 184.189 106.816 182.02 111.51C179.852 116.204 174.165 111.691 171.749 116.189C169.333 120.686 174.058 124.436 172.356 129.501C170.655 134.565 166.067 130.924 164.942 136.446C163.817 141.969 170.823 147.528 167.857 151.59C164.892 155.651 156.815 149.241 153.08 152.693C149.346 156.144 156.159 161.551 152.919 165.394C149.678 169.238 142.453 163.504 140.12 168.067C137.786 172.63 142.718 179.751 143.584 183.646" stroke="url(#paint26_linear_88_144)" stroke-width="6" stroke-linecap="round"/>
<path d="M186.117 83.7538C187.72 87.6624 194.618 95.2648 192.529 99.3883C190.44 103.512 180.95 96.8916 177.761 100.248C174.572 103.604 181.53 108.458 179.773 112.813C178.017 117.169 172.722 113.475 170.735 117.67C168.749 121.865 173.148 124.934 171.827 129.593C170.505 134.252 166.233 131.272 165.449 136.305C164.664 141.339 171.187 145.889 168.689 149.727C166.19 153.565 158.67 148.319 155.456 151.657C152.241 154.996 158.585 159.421 155.831 163.08C153.077 166.74 146.35 162.047 144.44 166.295C142.53 170.544 147.253 176.629 148.191 180.074" stroke="url(#paint27_linear_88_144)" stroke-width="6" stroke-linecap="round"/>
<path d="M182.148 88.1724C183.728 91.5405 190.157 97.8543 188.47 101.645C186.783 105.436 178.094 100.156 175.399 103.335C172.705 106.513 179.076 110.384 177.693 114.36C176.311 118.335 171.462 115.39 169.869 119.237C168.276 123.085 172.304 125.532 171.32 129.75C170.335 133.967 166.424 131.591 165.931 136.107C165.439 140.623 171.411 144.252 169.349 147.815C167.287 151.378 160.402 147.194 157.684 150.359C154.966 153.523 160.775 157.052 158.479 160.473C156.183 163.893 150.023 160.151 148.5 164.041C146.977 167.931 151.415 173.036 152.386 176.034" stroke="url(#paint28_linear_88_144)" stroke-width="6" stroke-linecap="round"/>
<path d="M178.642 92.9742C180.157 95.8189 186.024 100.937 184.701 104.353C183.378 107.769 175.577 103.694 173.35 106.637C171.123 109.58 176.843 112.568 175.793 116.126C174.744 119.685 170.391 117.411 169.152 120.871C167.913 124.33 171.53 126.22 170.838 129.965C170.146 133.71 166.634 131.876 166.384 135.852C166.133 139.828 171.495 142.628 169.836 145.868C168.177 149.108 161.995 145.879 159.747 148.811C157.499 151.744 162.713 154.468 160.844 157.598C158.974 160.728 153.444 157.839 152.268 161.332C151.093 164.824 155.173 169.009 156.141 171.568" stroke="url(#paint29_linear_88_144)" stroke-width="6" stroke-linecap="round"/>
<path d="M175.622 98.1106C177.029 100.453 182.25 104.478 181.251 107.481C180.252 110.484 173.417 107.469 171.626 110.123C169.835 112.777 174.847 114.987 174.087 118.096C173.328 121.205 169.514 119.522 168.589 122.558C167.664 125.594 170.833 126.991 170.387 130.238C169.941 133.485 166.864 132.128 166.805 135.546C166.745 138.963 171.443 141.036 170.15 143.909C168.856 146.782 163.44 144.392 161.63 147.038C159.821 149.683 164.39 151.699 162.912 154.491C161.434 157.282 156.589 155.145 155.719 158.205C154.849 161.265 158.504 164.599 159.432 166.731" stroke="url(#paint30_linear_88_144)" stroke-width="6" stroke-linecap="round"/>
<path d="M173.106 103.526C174.366 105.393 178.862 108.434 178.145 110.991C177.428 113.549 171.627 111.442 170.238 113.756C168.848 116.069 173.101 117.613 172.587 120.244C172.073 122.875 168.837 121.7 168.182 124.28C167.528 126.86 170.217 127.837 169.969 130.564C169.721 133.292 167.11 132.344 167.19 135.191C167.27 138.038 171.257 139.485 170.29 141.952C169.323 144.418 164.726 142.749 163.321 145.057C161.916 147.364 165.793 148.772 164.67 151.182C163.546 153.592 159.434 152.099 158.826 154.696C158.218 157.293 161.386 159.852 162.239 161.57" stroke="url(#paint31_linear_88_144)" stroke-width="6" stroke-linecap="round"/>
<path d="M171.108 109.166C172.182 110.586 175.885 112.761 175.405 114.844C174.925 116.927 170.215 115.572 169.19 117.498C168.164 119.425 171.617 120.418 171.303 122.548C170.988 124.679 168.36 123.923 167.931 126.021C167.502 128.118 169.686 128.746 169.587 130.939C169.488 133.132 167.368 132.522 167.536 134.791C167.704 137.061 170.941 137.992 170.258 140.016C169.575 142.041 165.843 140.967 164.805 142.89C163.766 144.812 166.915 145.718 166.105 147.706C165.295 149.694 161.957 148.734 161.566 150.843C161.175 152.951 163.798 154.816 164.542 156.141" stroke="url(#paint32_linear_88_144)" stroke-width="6" stroke-linecap="round"/>
<path d="M169.642 114.975C170.494 115.981 173.341 117.414 173.053 118.999C172.765 120.584 169.192 119.819 168.489 121.316C167.787 122.812 170.407 123.373 170.244 124.985C170.081 126.597 168.087 126.17 167.838 127.764C167.588 129.357 169.245 129.712 169.246 131.359C169.247 133.006 167.638 132.662 167.841 134.352C168.044 136.043 170.5 136.568 170.058 138.12C169.616 139.673 166.784 139.067 166.073 140.561C165.361 142.056 167.749 142.567 167.211 144.098C166.672 145.63 164.139 145.088 163.919 146.688C163.698 148.287 165.726 149.545 166.328 150.497" stroke="url(#paint33_linear_88_144)" stroke-width="6" stroke-linecap="round"/>
<path d="M168.713 120.896C169.311 121.526 171.249 122.345 171.106 123.414C170.962 124.482 168.561 124.142 168.139 125.171C167.717 126.2 169.477 126.45 169.418 127.53C169.358 128.611 168.019 128.421 167.901 129.493C167.783 130.566 168.896 130.724 168.947 131.82C168.997 132.916 167.916 132.763 168.103 133.878C168.289 134.994 169.94 135.228 169.693 136.282C169.446 137.336 167.543 137.066 167.114 138.094C166.686 139.122 168.291 139.35 167.979 140.395C167.667 141.44 165.965 141.198 165.866 142.273C165.768 143.348 167.156 144.09 167.586 144.695" stroke="url(#paint34_linear_88_144)" stroke-width="6" stroke-linecap="round"/>
<path d="M168.327 126.871C168.64 127.164 169.626 127.505 169.579 128.043C169.531 128.582 168.325 128.496 168.138 129.025C167.95 129.554 168.835 129.616 168.83 130.158C168.825 130.699 168.152 130.652 168.117 131.191C168.083 131.731 168.642 131.77 168.692 132.316C168.743 132.861 168.199 132.823 168.318 133.373C168.436 133.923 169.266 133.982 169.166 134.517C169.067 135.052 168.111 134.984 167.92 135.513C167.73 136.041 168.536 136.098 168.404 136.631C168.272 137.163 167.417 137.103 167.392 137.643C167.368 138.183 168.077 138.504 168.306 138.791" stroke="url(#paint35_linear_88_144)" stroke-width="6" stroke-linecap="round"/>
<defs>
<linearGradient id="paint0_linear_88_144" x1="-15016.9" y1="-9461.66" x2="-11040.1" y2="-15727" gradientUnits="userSpaceOnUse">
<stop offset="0.45" stop-color="#00FFFF"/>
<stop offset="1" stop-color="#00FFFF"/>
</linearGradient>
<linearGradient id="paint1_linear_88_144" x1="-14995.8" y1="-8137.5" x2="-11489.7" y2="-14534.1" gradientUnits="userSpaceOnUse">
<stop offset="0.45" stop-color="#00FFFF"/>
<stop offset="1" stop-color="#00FFFF"/>
</linearGradient>
<linearGradient id="paint2_linear_88_144" x1="-14904.5" y1="-6847.94" x2="-11882.3" y2="-13336.8" gradientUnits="userSpaceOnUse">
<stop offset="0.45" stop-color="#00FFFF"/>
<stop offset="1" stop-color="#00FFFF"/>
</linearGradient>
<linearGradient id="paint3_linear_88_144" x1="-14746" y1="-5598.54" x2="-12216.8" y2="-12137.2" gradientUnits="userSpaceOnUse">
<stop offset="0.45" stop-color="#00FFFF"/>
<stop offset="1" stop-color="#00FFFF"/>
</linearGradient>
<linearGradient id="paint4_linear_88_144" x1="-14523.7" y1="-4394.54" x2="-12491.4" y2="-10937.8" gradientUnits="userSpaceOnUse">
<stop offset="0.45" stop-color="#00FFFF"/>
<stop offset="1" stop-color="#00FFFF"/>
</linearGradient>
<linearGradient id="paint5_linear_88_144" x1="-14241.3" y1="-3240.83" x2="-12703.9" y2="-9741.48" gradientUnits="userSpaceOnUse">
<stop offset="0.45" stop-color="#00FFFF"/>
<stop offset="1" stop-color="#00FFFF"/>
</linearGradient>
<linearGradient id="paint6_linear_88_144" x1="-13902.6" y1="-2141.92" x2="-12851.4" y2="-8552.08" gradientUnits="userSpaceOnUse">
<stop offset="0.45" stop-color="#00FFFF"/>
<stop offset="1" stop-color="#00FFFF"/>
</linearGradient>
<linearGradient id="paint7_linear_88_144" x1="-13511.8" y1="-1101.94" x2="-12931.1" y2="-7374.3" gradientUnits="userSpaceOnUse">
<stop offset="0.45" stop-color="#00FFFF"/>
<stop offset="1" stop-color="#00FFFF"/>
</linearGradient>
<linearGradient id="paint8_linear_88_144" x1="-13073.1" y1="-124.62" x2="-12940.7" y2="-6213.85" gradientUnits="userSpaceOnUse">
<stop offset="0.45" stop-color="#00FFFF"/>
<stop offset="1" stop-color="#00FFFF"/>
</linearGradient>
<linearGradient id="paint9_linear_88_144" x1="-12590.9" y1="786.731" x2="-12877.9" y2="-5077.39" gradientUnits="userSpaceOnUse">
<stop offset="0.45" stop-color="#00FFFF"/>
<stop offset="1" stop-color="#00FFFF"/>
</linearGradient>
<linearGradient id="paint10_linear_88_144" x1="-12069.9" y1="1629.23" x2="-12741.8" y2="-3972.43" gradientUnits="userSpaceOnUse">
<stop offset="0.45" stop-color="#00FFFF"/>
<stop offset="1" stop-color="#00FFFF"/>
</linearGradient>
<linearGradient id="paint11_linear_88_144" x1="-11514.8" y1="2400.43" x2="-12532.4" y2="-2907.05" gradientUnits="userSpaceOnUse">
<stop offset="0.45" stop-color="#00FFFF"/>
<stop offset="1" stop-color="#00FFFF"/>
</linearGradient>
<linearGradient id="paint12_linear_88_144" x1="-10930.4" y1="3098.33" x2="-12251.1" y2="-1889.61" gradientUnits="userSpaceOnUse">
<stop offset="0.45" stop-color="#00FFFF"/>
<stop offset="1" stop-color="#00FFFF"/>
</linearGradient>
<linearGradient id="paint13_linear_88_144" x1="-10321.5" y1="3721.37" x2="-11900.6" y2="-928.408" gradientUnits="userSpaceOnUse">
<stop offset="0.45" stop-color="#00FFFF"/>
<stop offset="1" stop-color="#00FFFF"/>
</linearGradient>
<linearGradient id="paint14_linear_88_144" x1="-9693.03" y1="4268.44" x2="-11485.2" y2="-31.2904" gradientUnits="userSpaceOnUse">
<stop offset="0.45" stop-color="#00FFFF"/>
<stop offset="1" stop-color="#00FFFF"/>
</linearGradient>
<linearGradient id="paint15_linear_88_144" x1="-9049.99" y1="4738.9" x2="-11010.3" y2="794.596" gradientUnits="userSpaceOnUse">
<stop offset="0.45" stop-color="#00FFFF"/>
<stop offset="1" stop-color="#00FFFF"/>
</linearGradient>
<linearGradient id="paint16_linear_88_144" x1="-8397.25" y1="5132.54" x2="-10482.3" y2="1543.09" gradientUnits="userSpaceOnUse">
<stop offset="0.45" stop-color="#00FFFF"/>
<stop offset="1" stop-color="#00FFFF"/>
</linearGradient>
<linearGradient id="paint17_linear_88_144" x1="-7739.71" y1="5449.61" x2="-9908.66" y2="2209.2" gradientUnits="userSpaceOnUse">
<stop offset="0.45" stop-color="#00FFFF"/>
<stop offset="1" stop-color="#00FFFF"/>
</linearGradient>
<linearGradient id="paint18_linear_88_144" x1="-7082.21" y1="5690.78" x2="-9297.23" y2="2789.15" gradientUnits="userSpaceOnUse">
<stop offset="0.45" stop-color="#00FFFF"/>
<stop offset="1" stop-color="#00FFFF"/>
</linearGradient>
<linearGradient id="paint19_linear_88_144" x1="-6429.49" y1="5857.18" x2="-8656.21" y2="3280.49" gradientUnits="userSpaceOnUse">
<stop offset="0.45" stop-color="#00FFFF"/>
<stop offset="1" stop-color="#00FFFF"/>
</linearGradient>
<linearGradient id="paint20_linear_88_144" x1="-5786.19" y1="5950.35" x2="-7993.9" y2="3681.97" gradientUnits="userSpaceOnUse">
<stop offset="0.45" stop-color="#00FFFF"/>
<stop offset="1" stop-color="#00FFFF"/>
</linearGradient>
<linearGradient id="paint21_linear_88_144" x1="-5156.84" y1="5972.23" x2="-7318.47" y2="3993.54" gradientUnits="userSpaceOnUse">
<stop offset="0.45" stop-color="#00FFFF"/>
<stop offset="1" stop-color="#00FFFF"/>
</linearGradient>
<linearGradient id="paint22_linear_88_144" x1="-4545.79" y1="5925.19" x2="-6637.86" y2="4216.2" gradientUnits="userSpaceOnUse">
<stop offset="0.45" stop-color="#00FFFF"/>
<stop offset="1" stop-color="#00FFFF"/>
</linearGradient>
<linearGradient id="paint23_linear_88_144" x1="-3957.23" y1="5811.95" x2="-5959.57" y2="4351.9" gradientUnits="userSpaceOnUse">
<stop offset="0.45" stop-color="#00FFFF"/>
<stop offset="1" stop-color="#00FFFF"/>
</linearGradient>
<linearGradient id="paint24_linear_88_144" x1="-3395.16" y1="5635.63" x2="-5290.69" y2="4403.42" gradientUnits="userSpaceOnUse">
<stop offset="0.45" stop-color="#00FFFF"/>
<stop offset="1" stop-color="#00FFFF"/>
</linearGradient>
<linearGradient id="paint25_linear_88_144" x1="-2863.37" y1="5399.65" x2="-4637.75" y2="4374.24" gradientUnits="userSpaceOnUse">
<stop offset="0.45" stop-color="#00FFFF"/>
<stop offset="1" stop-color="#00FFFF"/>
</linearGradient>
<linearGradient id="paint26_linear_88_144" x1="-2365.41" y1="5107.8" x2="-4006.74" y2="4268.41" gradientUnits="userSpaceOnUse">
<stop offset="0.45" stop-color="#00FFFF"/>
<stop offset="1" stop-color="#00FFFF"/>
</linearGradient>
<linearGradient id="paint27_linear_88_144" x1="-1904.58" y1="4764.16" x2="-3403.1" y2="4090.48" gradientUnits="userSpaceOnUse">
<stop offset="0.45" stop-color="#00FFFF"/>
<stop offset="1" stop-color="#00FFFF"/>
</linearGradient>
<linearGradient id="paint28_linear_88_144" x1="-1483.92" y1="4373.09" x2="-2831.69" y2="3845.39" gradientUnits="userSpaceOnUse">
<stop offset="0.45" stop-color="#00FFFF"/>
<stop offset="1" stop-color="#00FFFF"/>
</linearGradient>
<linearGradient id="paint29_linear_88_144" x1="-1106.19" y1="3939.2" x2="-2296.84" y2="3538.4" gradientUnits="userSpaceOnUse">
<stop offset="0.45" stop-color="#00FFFF"/>
<stop offset="1" stop-color="#00FFFF"/>
</linearGradient>
<linearGradient id="paint30_linear_88_144" x1="-773.858" y1="3467.35" x2="-1802.3" y2="3174.99" gradientUnits="userSpaceOnUse">
<stop offset="0.45" stop-color="#00FFFF"/>
<stop offset="1" stop-color="#00FFFF"/>
</linearGradient>
<linearGradient id="paint31_linear_88_144" x1="-489.075" y1="2962.59" x2="-1351.37" y2="2760.83" gradientUnits="userSpaceOnUse">
<stop offset="0.45" stop-color="#00FFFF"/>
<stop offset="1" stop-color="#00FFFF"/>
</linearGradient>
<linearGradient id="paint32_linear_88_144" x1="-253.691" y1="2430.15" x2="-946.792" y2="2301.7" gradientUnits="userSpaceOnUse">
<stop offset="0.45" stop-color="#00FFFF"/>
<stop offset="1" stop-color="#00FFFF"/>
</linearGradient>
<linearGradient id="paint33_linear_88_144" x1="-69.2236" y1="1875.41" x2="-590.876" y2="1803.46" gradientUnits="userSpaceOnUse">
<stop offset="0.45" stop-color="#00FFFF"/>
<stop offset="1" stop-color="#00FFFF"/>
</linearGradient>
<linearGradient id="paint34_linear_88_144" x1="63.1382" y1="1303.88" x2="-285.472" y2="1271.99" gradientUnits="userSpaceOnUse">
<stop offset="0.45" stop-color="#00FFFF"/>
<stop offset="1" stop-color="#00FFFF"/>
</linearGradient>
<linearGradient id="paint35_linear_88_144" x1="142.544" y1="721.139" x2="-32.0084" y2="713.183" gradientUnits="userSpaceOnUse">
<stop offset="0.45" stop-color="#00FFFF"/>
<stop offset="1" stop-color="#00FFFF"/>
</linearGradient>
</defs>
</svg>
