<svg width="32" height="32" viewBox="0 0 32 32" fill="none" xmlns="http://www.w3.org/2000/svg">
<path d="M16 30C23.732 30 30 23.732 30 16C30 8.26801 23.732 2 16 2C8.26801 2 2 8.26801 2 16C2 23.732 8.26801 30 16 30Z" stroke="#FCFCFC" stroke-width="2" stroke-miterlimit="10" stroke-linecap="round" stroke-linejoin="round"/>
<path d="M16 18C18.7614 18 21 15.7614 21 13C21 10.2386 18.7614 8 16 8C13.2386 8 11 10.2386 11 13C11 15.7614 13.2386 18 16 18Z" stroke="#FCFCFC" stroke-width="2" stroke-miterlimit="10" stroke-linecap="round" stroke-linejoin="round"/>
<path d="M5.3999 25.0996C7.1999 20.9996 11.1999 18.0996 15.9999 18.0996C20.7999 18.0996 24.8999 20.9996 26.5999 25.0996" stroke="#FCFCFC" stroke-opacity="0.988235" stroke-width="2" stroke-miterlimit="10" stroke-linecap="round" stroke-linejoin="round"/>
</svg>
