<svg width="46" height="46" viewBox="0 0 46 46" fill="none" xmlns="http://www.w3.org/2000/svg">
<path d="M32.8759 28.9308H30.7982L30.0618 28.2207C32.6392 25.2224 34.191 21.3299 34.191 17.0955C34.191 7.65352 26.5374 0 17.0955 0C7.65352 0 0 7.65352 0 17.0955C0 26.5374 7.65352 34.191 17.0955 34.191C21.3299 34.191 25.2224 32.6392 28.2207 30.0618L28.9308 30.7982V32.8759L42.0812 46L46 42.0812L32.8759 28.9308ZM17.0955 28.9308C10.5466 28.9308 5.26015 23.6444 5.26015 17.0955C5.26015 10.5466 10.5466 5.26015 17.0955 5.26015C23.6444 5.26015 28.9308 10.5466 28.9308 17.0955C28.9308 23.6444 23.6444 28.9308 17.0955 28.9308Z" fill="black"/>
</svg>
