<svg width="635" height="579" viewBox="0 0 635 579" fill="none" xmlns="http://www.w3.org/2000/svg">
<path d="M443.679 194.877C463.478 221.236 475.208 253.999 475.208 289.503C475.208 325.006 463.478 357.768 443.679 384.128M506.75 77.9109C564.825 129.89 601.375 205.428 601.375 289.503C601.375 373.577 564.825 449.113 506.75 501.094M84.0917 194.877H112.517C129.894 194.877 138.583 194.877 146.634 192.711C153.768 190.792 160.509 187.635 166.551 183.383C173.369 178.584 178.931 171.909 190.056 158.56L272.881 59.1691C286.624 42.6785 293.494 34.4332 299.496 33.575C304.694 32.8318 309.921 34.7244 313.437 38.6226C317.5 43.1242 317.5 53.8572 317.5 75.3232V503.68C317.5 525.147 317.5 535.881 313.437 540.382C309.921 544.281 304.694 546.173 299.496 545.429C293.497 544.571 286.624 536.326 272.881 519.836L190.056 420.445C178.931 407.096 173.369 400.419 166.551 395.622C160.509 391.37 153.768 388.212 146.634 386.295C138.583 384.128 129.894 384.128 112.517 384.128H84.0917C66.4268 384.128 57.5941 384.128 50.8471 380.69C44.9122 377.665 40.0869 372.839 37.0627 366.906C33.625 360.159 33.625 351.324 33.625 333.661V245.344C33.625 227.678 33.625 218.847 37.0627 212.099C40.0869 206.164 44.9122 201.339 50.8471 198.315C57.5941 194.877 66.4268 194.877 84.0917 194.877Z" stroke="#FCFCFC" stroke-opacity="0.988235" stroke-width="66.6667" stroke-linecap="round" stroke-linejoin="round"/>
</svg>
